<svg width="11" height="14" viewBox="0 0 11 14" fill="none" xmlns="http://www.w3.org/2000/svg">
<path d="M5.31728 0.660156C7.91335 0.660156 10.0254 2.7722 10.0254 5.36824C10.0254 8.59001 5.81209 13.3198 5.63271 13.5195C5.46421 13.7072 5.17004 13.7069 5.00185 13.5195C4.82246 13.3198 0.609164 8.59001 0.609164 5.36824C0.609215 2.7722 2.72124 0.660156 5.31728 0.660156ZM5.31728 7.73701C6.62342 7.73701 7.68602 6.67439 7.68602 5.36824C7.68602 4.0621 6.6234 2.9995 5.31728 2.9995C4.01116 2.9995 2.94856 4.06212 2.94856 5.36827C2.94856 6.67442 4.01116 7.73701 5.31728 7.73701Z" fill="#F49C07"/>
</svg>
