<svg width="16" height="17" viewBox="0 0 16 17" fill="none" xmlns="http://www.w3.org/2000/svg">
<g clip-path="url(#clip0)">
<path fill-rule="evenodd" clip-rule="evenodd" d="M9.08553 8.35795L15.7762 1.66724C16.0759 1.36753 16.0759 0.881663 15.7762 0.581957C15.4765 0.282251 14.9907 0.282251 14.691 0.581957L8.00025 7.27266L1.30954 0.58298C1.00984 0.283274 0.523967 0.283274 0.224261 0.58298C-0.0754453 0.882686 -0.0754453 1.36856 0.224261 1.66826L6.91496 8.35897L0.225284 15.0486C-0.0744224 15.3484 -0.0744224 15.8342 0.225284 16.1339C0.375648 16.2833 0.571019 16.359 0.767414 16.359C0.963808 16.359 1.1602 16.2843 1.30954 16.1339L8.00025 9.44323L14.691 16.1339C14.8413 16.2833 15.0367 16.359 15.2331 16.359C15.4295 16.359 15.6259 16.2843 15.7752 16.1339C16.0749 15.8342 16.0749 15.3484 15.7752 15.0486L9.08553 8.35795Z" fill="white"/>
</g>
<defs>
<clipPath id="clip0">
<rect width="16" height="16" fill="white" transform="translate(0.000244141 0.35791)"/>
</clipPath>
</defs>
</svg>
