<svg width="14" height="11" viewBox="0 0 14 11" fill="none" xmlns="http://www.w3.org/2000/svg">
<path d="M1.85675 3.59471C2.0212 3.71076 2.51691 4.05541 3.3439 4.62848C4.17092 5.20156 4.80447 5.64282 5.24458 5.95228C5.29293 5.9862 5.39566 6.05993 5.55282 6.17359C5.71 6.28732 5.8406 6.37923 5.94453 6.44933C6.04853 6.51941 6.17425 6.59802 6.32183 6.68505C6.46935 6.772 6.60842 6.8374 6.73899 6.8807C6.8696 6.92435 6.99049 6.94598 7.10171 6.94598H7.109H7.11632C7.22754 6.94598 7.34848 6.92433 7.47909 6.8807C7.60961 6.8374 7.74881 6.77192 7.8962 6.68505C8.04368 6.59792 8.1694 6.51938 8.2734 6.44933C8.3774 6.37923 8.5079 6.28732 8.66514 6.17359C8.82227 6.05983 8.92512 5.9862 8.97348 5.95228C9.41834 5.64282 10.5501 4.85689 12.3685 3.59456C12.7216 3.34802 13.0165 3.05052 13.2534 2.70229C13.4906 2.35421 13.609 1.98906 13.609 1.60703C13.609 1.28779 13.4941 1.01451 13.2643 0.787229C13.0346 0.559893 12.7625 0.446289 12.4483 0.446289H1.76967C1.3973 0.446289 1.11074 0.572014 0.910031 0.823463C0.70935 1.07496 0.609009 1.38932 0.609009 1.76652C0.609009 2.0712 0.742051 2.40137 1.00801 2.75682C1.27394 3.11229 1.55695 3.39162 1.85675 3.59471Z" fill="#F49C07"/>
<path d="M12.8835 4.37037C11.2973 5.44393 10.0929 6.27827 9.27086 6.8732C8.99519 7.07624 8.77157 7.23474 8.59983 7.34832C8.42809 7.46198 8.19968 7.57805 7.91429 7.69648C7.62899 7.81509 7.36311 7.87421 7.11642 7.87421H7.10902H7.10173C6.85508 7.87421 6.58905 7.81509 6.30375 7.69648C6.01846 7.57805 5.78991 7.46198 5.61822 7.34832C5.44658 7.23474 5.22288 7.07624 4.94724 6.8732C4.2943 6.39444 3.0925 5.56005 1.34178 4.37037C1.06604 4.18671 0.82181 3.9762 0.609009 3.73926V9.49913C0.609009 9.81852 0.722613 10.0916 0.949949 10.319C1.17723 10.5463 1.45053 10.66 1.76975 10.66H12.4483C12.7675 10.66 13.0408 10.5463 13.2681 10.319C13.4955 10.0916 13.609 9.81855 13.609 9.49913V3.73926C13.401 3.97129 13.1593 4.18181 12.8835 4.37037Z" fill="#F49C07"/>
</svg>
