<svg width="1135" height="200" viewBox="0 0 1135 200" fill="none" xmlns="http://www.w3.org/2000/svg">
<path d="M125.314 197.139H93.0004V131.227H32.4384V197.139H0.124381V44.3427H32.4384V104.263H93.0004V44.3427H125.314V197.139ZM302.431 120.527C302.431 136.363 299.792 150.201 294.513 162.043C289.377 173.741 281.459 182.872 270.759 189.435C260.059 195.997 246.363 199.279 229.671 199.279C213.122 199.279 199.426 195.997 188.583 189.435C177.883 182.872 169.894 173.67 164.615 161.829C159.479 149.987 156.911 136.149 156.911 120.313C156.911 104.477 159.479 90.7093 164.615 79.0107C169.894 67.312 177.883 58.2527 188.583 51.8327C199.426 45.27 213.193 41.9887 229.885 41.9887C246.434 41.9887 260.059 45.27 270.759 51.8327C281.459 58.2527 289.377 67.3833 294.513 79.2247C299.792 90.9233 302.431 104.691 302.431 120.527ZM190.937 120.527C190.937 136.505 194.004 149.131 200.139 158.405C206.274 167.535 216.118 172.101 229.671 172.101C243.51 172.101 253.425 167.535 259.417 158.405C265.409 149.131 268.405 136.505 268.405 120.527C268.405 104.405 265.409 91.7793 259.417 82.6487C253.425 73.518 243.581 68.9527 229.885 68.9527C216.189 68.9527 206.274 73.518 200.139 82.6487C194.004 91.7793 190.937 104.405 190.937 120.527ZM193.719 14.3827C193.719 9.38933 195.146 5.82266 197.999 3.68266C200.852 1.4 204.276 0.258668 208.271 0.258668C212.266 0.258668 215.69 1.4 218.543 3.68266C221.539 5.82266 223.037 9.38933 223.037 14.3827C223.037 19.0907 221.539 22.586 218.543 24.8687C215.69 27.1513 212.266 28.2927 208.271 28.2927C204.276 28.2927 200.852 27.1513 197.999 24.8687C195.146 22.586 193.719 19.0907 193.719 14.3827ZM235.877 14.3827C235.877 9.38933 237.304 5.82266 240.157 3.68266C243.01 1.4 246.506 0.258668 250.643 0.258668C254.638 0.258668 258.062 1.4 260.915 3.68266C263.911 5.82266 265.409 9.38933 265.409 14.3827C265.409 19.0907 263.911 22.586 260.915 24.8687C258.062 27.1513 254.638 28.2927 250.643 28.2927C246.506 28.2927 243.01 27.1513 240.157 24.8687C237.304 22.586 235.877 19.0907 235.877 14.3827ZM378.593 44.3427C399.423 44.3427 414.759 48.1233 424.603 55.6847C434.59 63.246 439.583 74.7307 439.583 90.1387C439.583 97.1293 438.228 103.264 435.517 108.543C432.949 113.679 429.454 118.101 425.031 121.811C420.751 125.377 416.115 128.302 411.121 130.585L456.061 197.139H420.109L383.729 138.503H366.395V197.139H334.081V44.3427H378.593ZM376.239 70.8787H366.395V112.181H376.881C387.581 112.181 395.214 110.397 399.779 106.831C404.487 103.264 406.841 97.9853 406.841 90.9947C406.841 83.7187 404.345 78.5827 399.351 75.5867C394.501 72.448 386.797 70.8787 376.239 70.8787ZM539.983 197.139L503.175 77.2987H502.319C502.462 80.152 502.676 84.432 502.961 90.1387C503.246 95.8453 503.532 101.98 503.817 108.543C504.102 114.963 504.245 120.812 504.245 126.091V197.139H475.355V44.3427H519.439L555.605 161.187H556.247L594.553 44.3427H638.637V197.139H608.463V124.807C608.463 119.956 608.534 114.392 608.677 108.115C608.962 101.837 609.176 95.9167 609.319 90.3527C609.604 84.646 609.818 80.366 609.961 77.5127H609.105L569.729 197.139H539.983ZM770.752 197.139L759.624 160.759H703.984L692.856 197.139H657.974L711.902 43.7007H751.492L805.634 197.139H770.752ZM740.792 98.0567C740.078 95.6313 739.151 92.564 738.01 88.8547C736.868 85.1453 735.727 81.3647 734.586 77.5127C733.444 73.6607 732.517 70.308 731.804 67.4547C731.09 70.308 730.092 73.8747 728.808 78.1547C727.666 82.292 726.525 86.2867 725.384 90.1387C724.385 93.848 723.6 96.4873 723.03 98.0567L712.116 133.581H751.92L740.792 98.0567ZM960.448 197.139H919.36L852.806 81.5787H851.95C852.235 88.8547 852.52 96.1307 852.806 103.407C853.234 110.683 853.59 117.959 853.876 125.235V197.139H824.986V44.3427H865.86L932.2 158.833H932.842C932.699 151.699 932.485 144.637 932.2 137.647C931.914 130.656 931.629 123.665 931.344 116.675V44.3427H960.448V197.139ZM1134.53 197.139H1093.44L1026.89 81.5787H1026.03C1026.32 88.8547 1026.6 96.1307 1026.89 103.407C1027.32 110.683 1027.67 117.959 1027.96 125.235V197.139H999.07V44.3427H1039.94L1106.28 158.833H1106.93C1106.78 151.699 1106.57 144.637 1106.28 137.647C1106 130.656 1105.71 123.665 1105.43 116.675V44.3427H1134.53V197.139Z" fill="#003A7D" fill-opacity="0.06"/>
</svg>
