<svg width="105" height="17" viewBox="0 0 105 17" fill="none" xmlns="http://www.w3.org/2000/svg">
<g clip-path="url(#clip0)">
<path d="M16.1502 6.73582C16.0448 6.41184 15.7575 6.18246 15.4188 6.15182L10.8001 5.7325L8.97476 1.45899C8.84 1.14502 8.53335 0.942383 8.19204 0.942383C7.85072 0.942383 7.54395 1.14502 7.41004 1.45899L5.58469 5.7325L0.965232 6.15182C0.626604 6.18307 0.339856 6.41245 0.233897 6.73582C0.128549 7.0598 0.22584 7.41515 0.481948 7.63976L3.97334 10.7012L2.9439 15.2352C2.86858 15.5686 2.99798 15.9133 3.2746 16.1133C3.42328 16.2213 3.59797 16.2753 3.77326 16.2753C3.9239 16.2753 4.07466 16.2352 4.2093 16.1547L8.19204 13.7733L12.174 16.1547C12.4662 16.3292 12.8335 16.3132 13.1095 16.1133C13.3861 15.9133 13.5155 15.5686 13.4402 15.2352L12.4107 10.7012L15.9021 7.63976C16.1581 7.41515 16.2555 7.06053 16.1502 6.73582Z" fill="#FF9F00"/>
</g>
<g clip-path="url(#clip1)">
<path d="M38.304 6.73582C38.1986 6.41184 37.9113 6.18246 37.5726 6.15182L32.9539 5.7325L31.1286 1.45899C30.9938 1.14502 30.6872 0.942383 30.3458 0.942383C30.0045 0.942383 29.6978 1.14502 29.5638 1.45899L27.7385 5.7325L23.119 6.15182C22.7804 6.18307 22.4937 6.41245 22.3877 6.73582C22.2824 7.0598 22.3796 7.41515 22.6358 7.63976L26.1271 10.7012L25.0977 15.2352C25.0224 15.5686 25.1518 15.9133 25.4284 16.1133C25.5771 16.2213 25.7518 16.2753 25.9271 16.2753C26.0777 16.2753 26.2285 16.2352 26.3631 16.1547L30.3458 13.7733L34.3278 16.1547C34.62 16.3292 34.9873 16.3132 35.2633 16.1133C35.5399 15.9133 35.6693 15.5686 35.594 15.2352L34.5645 10.7012L38.0559 7.63976C38.3119 7.41515 38.4093 7.06053 38.304 6.73582Z" fill="#FF9F00"/>
</g>
<g clip-path="url(#clip2)">
<path d="M60.4579 6.73582C60.3526 6.41184 60.0652 6.18246 59.7266 6.15182L55.1079 5.7325L53.2825 1.45899C53.1477 1.14502 52.8411 0.942383 52.4998 0.942383C52.1585 0.942383 51.8517 1.14502 51.7178 1.45899L49.8924 5.7325L45.273 6.15182C44.9343 6.18307 44.6476 6.41245 44.5416 6.73582C44.4363 7.0598 44.5336 7.41515 44.7897 7.63976L48.2811 10.7012L47.2516 15.2352C47.1763 15.5686 47.3057 15.9133 47.5823 16.1133C47.731 16.2213 47.9057 16.2753 48.081 16.2753C48.2316 16.2753 48.3824 16.2352 48.517 16.1547L52.4998 13.7733L56.4818 16.1547C56.7739 16.3292 57.1412 16.3132 57.4172 16.1133C57.6938 15.9133 57.8232 15.5686 57.7479 15.2352L56.7185 10.7012L60.2099 7.63976C60.4658 7.41515 60.5633 7.06053 60.4579 6.73582Z" fill="#FF9F00"/>
</g>
<g clip-path="url(#clip3)">
<path d="M82.6117 6.73582C82.5064 6.41184 82.219 6.18246 81.8804 6.15182L77.2617 5.7325L75.4363 1.45899C75.3015 1.14502 74.9949 0.942383 74.6536 0.942383C74.3123 0.942383 74.0055 1.14502 73.8716 1.45899L72.0462 5.7325L67.4268 6.15182C67.0882 6.18307 66.8014 6.41245 66.6954 6.73582C66.5901 7.0598 66.6874 7.41515 66.9435 7.63976L70.4349 10.7012L69.4055 15.2352C69.3301 15.5686 69.4595 15.9133 69.7361 16.1133C69.8848 16.2213 70.0595 16.2753 70.2348 16.2753C70.3854 16.2753 70.5362 16.2352 70.6709 16.1547L74.6536 13.7733L78.6356 16.1547C78.9277 16.3292 79.295 16.3132 79.571 16.1133C79.8476 15.9133 79.977 15.5686 79.9017 15.2352L78.8723 10.7012L82.3637 7.63976C82.6197 7.41515 82.7171 7.06053 82.6117 6.73582Z" fill="#FF9F00"/>
</g>
<g clip-path="url(#clip4)">
<path d="M104.766 6.73582C104.66 6.41184 104.373 6.18246 104.034 6.15182L99.4155 5.7325L97.5901 1.45899C97.4554 1.14502 97.1487 0.942383 96.8074 0.942383C96.4661 0.942383 96.1593 1.14502 96.0254 1.45899L94.2 5.7325L89.5806 6.15182C89.242 6.18307 88.9552 6.41245 88.8493 6.73582C88.7439 7.0598 88.8412 7.41515 89.0973 7.63976L92.5887 10.7012L91.5593 15.2352C91.4839 15.5686 91.6133 15.9133 91.89 16.1133C92.0386 16.2213 92.2133 16.2753 92.3886 16.2753C92.5393 16.2753 92.69 16.2352 92.8247 16.1547L96.8074 13.7733L100.789 16.1547C101.082 16.3292 101.449 16.3132 101.725 16.1133C102.001 15.9133 102.131 15.5686 102.056 15.2352L101.026 10.7012L104.517 7.63976C104.773 7.41515 104.871 7.06053 104.766 6.73582Z" fill="#D5DFEB"/>
</g>
<defs>
<clipPath id="clip0">
<rect width="16" height="16" fill="white" transform="translate(0.192139 0.598633)"/>
</clipPath>
<clipPath id="clip1">
<rect width="16" height="16" fill="white" transform="translate(22.3459 0.598633)"/>
</clipPath>
<clipPath id="clip2">
<rect width="16" height="16" fill="white" transform="translate(44.4999 0.598633)"/>
</clipPath>
<clipPath id="clip3">
<rect width="16" height="16" fill="white" transform="translate(66.6537 0.598633)"/>
</clipPath>
<clipPath id="clip4">
<rect width="16" height="16" fill="white" transform="translate(88.8075 0.598633)"/>
</clipPath>
</defs>
</svg>
