<svg width="53" height="46" viewBox="0 0 53 46" fill="none" xmlns="http://www.w3.org/2000/svg">
<path d="M42.2187 22.3025C43.0274 22.3025 43.807 22.4263 44.5401 22.6548V13.8335C42.1596 13.2365 40.2818 11.394 39.6728 9.05811H13.1202C12.5112 11.394 10.6338 13.2365 8.25293 13.8335V23.705C10.6334 24.3024 12.5112 26.1444 13.1202 28.4804H34.6592C35.3163 24.9709 38.4549 22.3025 42.2187 22.3025ZM16.0902 12.3196H36.7036C37.6264 12.3196 38.3748 13.054 38.3748 13.9597C38.3748 14.865 37.6264 15.5994 36.7036 15.5994H16.0902C15.1675 15.5994 14.419 14.865 14.419 13.9597C14.419 13.054 15.1671 12.3196 16.0902 12.3196ZM16.0902 17.13H36.7036C37.6264 17.13 38.3748 17.8639 38.3748 18.7696C38.3748 19.6754 37.6264 20.4093 36.7036 20.4093H16.0902C15.1675 20.4093 14.419 19.6754 14.419 18.7696C14.419 17.8639 15.1671 17.13 16.0902 17.13ZM30.4081 25.2197H16.0902C15.1675 25.2197 14.419 24.4853 14.419 23.5796C14.419 22.6742 15.1675 21.9399 16.0902 21.9399H30.4081C31.3313 21.9399 32.0794 22.6742 32.0794 23.5796C32.0794 24.4853 31.3313 25.2197 30.4081 25.2197Z" fill="#003A7D"/>
<path d="M50.1118 0.859375H2.6813C1.14353 0.859375 -0.103516 2.08289 -0.103516 3.59165V33.9466C-0.103516 35.4558 1.14353 36.6793 2.6813 36.6793H36.366V43.6764C36.366 44.2445 36.666 44.7722 37.1585 45.0713C37.6515 45.3696 38.2665 45.397 38.7849 45.1431L42.2187 43.4594L45.6525 45.1431C45.8882 45.2589 46.1442 45.3161 46.3998 45.3161C46.7055 45.3161 47.0099 45.234 47.2784 45.0713C47.7713 44.7722 48.071 44.2445 48.071 43.6764V36.6793H50.1114C51.6495 36.6793 52.8966 35.4558 52.8966 33.9466V3.59165C52.8966 2.08289 51.65 0.859375 50.1118 0.859375ZM42.2187 37.3886C38.6535 37.3886 35.6479 34.9948 34.7821 31.7598H11.6585C10.7353 31.7598 9.98685 31.0255 9.98685 30.1201C9.98685 28.2777 8.45959 26.7789 6.58175 26.7789C5.6586 26.7789 4.91053 26.0449 4.91053 25.1392V12.3994C4.91053 11.4937 5.6586 10.7594 6.58175 10.7594C8.45959 10.7594 9.98685 9.26052 9.98685 7.4185C9.98685 6.51277 10.7353 5.77882 11.6585 5.77882H41.1346C42.0578 5.77882 42.8062 6.51277 42.8062 7.4185C42.8062 9.26052 44.3335 10.7594 46.2113 10.7594C47.1345 10.7594 47.8825 11.4937 47.8825 12.3994V24.7512C49.1389 26.0941 49.9068 27.8834 49.9068 29.8456C49.9068 34.0049 46.458 37.3886 42.2187 37.3886Z" fill="#003A7D"/>
<path d="M46.5643 29.8457C46.5643 27.4947 44.6149 25.582 42.2187 25.582C39.8225 25.582 37.873 27.4947 37.873 29.8457C37.873 32.1967 39.8225 34.1089 42.2187 34.1089C44.6149 34.1089 46.5643 32.1967 46.5643 29.8457Z" fill="#003A7D"/>
</svg>
