<svg width="52" height="44" viewBox="0 0 52 44" fill="none" xmlns="http://www.w3.org/2000/svg">
<path d="M13.5573 3.37988H17.9615V16.9169H13.5573V3.37988Z" fill="#003A7D"/>
<path d="M6.01418 8.68428H0.431274V11.6125H6.01418V14.3042H10.5704V5.99268H6.01418V8.68428Z" fill="#003A7D"/>
<path d="M39.2661 27.6075V34.6864C39.3352 34.6843 39.4041 34.6812 39.4737 34.6812H48.5696V21.0752H36.9883C38.4153 22.8834 39.2661 25.1496 39.2661 27.6075Z" fill="#003A7D"/>
<path d="M36.2584 27.0594C36.079 24.5499 34.6792 22.3658 32.6377 21.0752H28.1844C30.2993 21.8374 31.8119 23.8319 31.8119 26.1665V27.0594H36.2584Z" fill="#003A7D"/>
<path d="M35.7479 41.1661V43.1793H48.5696V37.5132H39.4739C37.4193 37.5132 35.7479 39.1519 35.7479 41.1661Z" fill="#003A7D"/>
<path d="M45.7008 0.45752H41.434V5.71758H38.4472V0.45752H35.4604V5.71758H32.4736V0.45752H29.4868V5.71758H26.5001V0.45752H20.9484V18.147H51.4313V6.07568C51.4313 2.97783 48.8606 0.45752 45.7008 0.45752ZM47.0954 13.983H44.1086V11.0548H47.0954V13.983Z" fill="#003A7D"/>
</svg>
