<svg width="62" height="62" viewBox="0 0 62 62" fill="none" xmlns="http://www.w3.org/2000/svg">
<path d="M42.625 36.9336C46.9721 36.9336 50.4961 33.4096 50.4961 29.0625C50.4961 24.7154 46.9721 21.1914 42.625 21.1914C38.2779 21.1914 34.7539 24.7154 34.7539 29.0625C34.7539 33.4096 38.2779 36.9336 42.625 36.9336Z" fill="#003A7D"/>
<path d="M42.625 9.80859C32.209 9.80859 23.3711 18.1972 23.3711 29.1836H21.3125C20.3094 29.1836 19.4961 29.9969 19.4961 31C19.4961 32.0031 20.3094 32.8164 21.3125 32.8164H23.3711V40.8086H17.4375C16.4344 40.8086 15.6211 41.6219 15.6211 42.625V43.7148H1.81641C0.813266 43.7148 0 44.5281 0 45.5312V50.375C0 51.3781 0.813266 52.1914 1.81641 52.1914C2.81955 52.1914 3.63281 51.3781 3.63281 50.375V47.3477H15.6211V50.375C15.6211 51.3781 16.4344 52.1914 17.4375 52.1914H60.1836C61.1867 52.1914 62 51.3781 62 50.375V29.0625C62 18.4458 53.3084 9.80859 42.625 9.80859ZM42.625 40.5664C36.2817 40.5664 31.1211 35.4058 31.1211 29.0625C31.1211 22.7192 36.2817 17.5586 42.625 17.5586C48.9683 17.5586 54.1289 22.7192 54.1289 29.0625C54.1289 35.4058 48.9683 40.5664 42.625 40.5664Z" fill="#003A7D"/>
</svg>
