<svg width="44" height="44" viewBox="0 0 44 44" fill="none" xmlns="http://www.w3.org/2000/svg">
<g clip-path="url(#clip0)">
<path d="M6.81213 15.188H1.28918C0.577278 15.188 0.00012207 15.7651 0.00012207 16.4771V30.2844C0.00012207 30.9963 0.577278 31.5734 1.28918 31.5734H6.81213C7.52404 31.5734 8.10119 30.9963 8.10119 30.2844V16.4771C8.10119 15.7651 7.52404 15.188 6.81213 15.188Z" fill="#003A7D"/>
<path d="M30.9749 30.101C31.6868 30.101 32.264 29.5238 32.264 28.8119V25.9588H32.3556C33.0675 25.9588 33.6447 25.3816 33.6447 24.6697C33.6447 23.9578 33.0675 23.3806 32.3556 23.3806H32.264V16.3853C32.264 15.864 31.95 15.3939 31.4683 15.1944C30.9868 14.9949 30.4323 15.105 30.0636 15.4737C30.0635 15.4737 26.0389 19.497 24.1307 21.4038C23.2736 22.2655 22.7822 23.4559 22.7822 24.6697C22.7822 25.3816 23.3593 25.9588 24.0712 25.9588H29.6859V28.8119C29.6859 29.5238 30.2629 30.101 30.9749 30.101ZM25.8162 23.3806C25.86 23.3263 25.9066 23.2742 25.9558 23.2247C26.9213 22.2598 28.4314 20.7506 29.6858 19.4966V23.3806H25.8162Z" fill="#003A7D"/>
<path d="M20.5276 28.8118C20.5276 28.0999 19.9505 27.5228 19.2386 27.5228H14.08C14.1237 27.4684 14.1703 27.4163 14.2195 27.3668C16.125 25.4627 20.1499 21.4391 20.1499 21.4391C20.3918 21.1973 20.5277 20.8694 20.5277 20.5274V19.8371C20.5277 17.223 18.401 15.0962 15.7869 15.0962C13.1479 15.0962 11.046 17.2338 11.046 19.8356V19.837C11.046 20.5489 11.6231 21.1254 12.335 21.1254C13.0469 21.1254 13.6241 20.5476 13.6241 19.8356C13.6241 18.6531 14.5763 17.6743 15.7869 17.6743C16.9794 17.6743 17.9496 18.6446 17.9496 19.8371V19.9933C16.9043 21.0383 13.948 23.9935 12.3944 25.546C11.5374 26.4077 11.046 27.5981 11.046 28.8118C11.046 29.5237 11.6231 30.1009 12.335 30.1009H19.2386C19.9505 30.1009 20.5276 29.5237 20.5276 28.8118Z" fill="#003A7D"/>
<path d="M22.0001 2.57812C28.47 2.57812 33.9215 7.02178 35.4631 13.0174C35.9828 12.7572 36.5685 12.6099 37.1882 12.6099H38.0177C36.273 5.38416 29.754 0 22.0001 0C14.2462 0 7.72716 5.38416 5.98254 12.6099H6.8121C7.43179 12.6099 8.01737 12.7572 8.53712 13.0174C10.0787 7.02178 15.5302 2.57812 22.0001 2.57812Z" fill="#003A7D"/>
<path d="M35.2113 33.6064C33.9228 36.5771 30.9618 38.6604 27.523 38.6604H25.8392C25.2994 37.0573 23.7829 35.899 22.0002 35.899C19.7667 35.899 17.9496 37.7161 17.9496 39.9495C17.9496 42.1829 19.7666 44 22.0001 44C23.7828 44 25.2993 42.8417 25.8391 41.2386H27.5229C32.2023 41.2386 36.2051 38.2889 37.7715 34.1515H37.1881C36.4662 34.1515 35.7902 33.9522 35.2113 33.6064Z" fill="#003A7D"/>
<path d="M42.7111 15.188H37.1881C36.4762 15.188 35.899 15.7651 35.899 16.4771V30.2844C35.899 30.9963 36.4762 31.5734 37.1881 31.5734H42.7111C43.423 31.5734 44.0001 30.9963 44.0001 30.2844V16.4771C44.0001 15.7651 43.423 15.188 42.7111 15.188Z" fill="#003A7D"/>
</g>
<defs>
<clipPath id="clip0">
<rect width="44" height="44" fill="white" transform="translate(0.00012207)"/>
</clipPath>
</defs>
</svg>
