<svg width="82" height="82" viewBox="0 0 82 82" fill="none" xmlns="http://www.w3.org/2000/svg">
<rect x="0.238525" y="0.313477" width="80" height="80" fill="#003A7D"/>
<rect x="60.2385" y="60.3135" width="21" height="21" fill="white"/>
<g clip-path="url(#clip0)">
<path d="M50.0434 57.1577C49.8216 56.7754 49.3317 56.6452 48.949 56.867L48.9181 56.8848C48.5357 57.1066 48.4055 57.5966 48.6274 57.9792C48.7759 58.2352 49.0446 58.3782 49.3207 58.3782C49.457 58.3782 49.5953 58.3432 49.7218 58.2699L49.7526 58.2521C50.1351 58.0302 50.2652 57.5402 50.0434 57.1577Z" fill="white"/>
<path d="M57.2532 30.2573C54.5159 25.5163 50.0963 22.1251 44.8085 20.7082C39.5208 19.2912 33.9976 20.0184 29.2566 22.7556C24.5156 25.4927 21.1243 29.9124 19.7075 35.2002C18.2907 40.488 19.0178 46.0112 21.7549 50.7522C24.2102 55.0049 28.1126 58.2369 32.7432 59.8527C34.9382 60.6186 37.2296 61.0008 39.5176 61.0008C42.0052 61.0008 44.4883 60.5487 46.8355 59.6466C47.2483 59.488 47.4543 59.0247 47.2955 58.6119C47.1368 58.1991 46.6735 57.9929 46.2609 58.1519C40.0132 60.5532 33.2496 59.4621 28.1964 55.6691L28.9138 51.9243L29.2595 51.812C30.5659 51.3876 31.2834 49.9795 30.8591 48.6731L30.6054 47.8924C30.5467 47.7118 30.547 47.5208 30.6062 47.3403C30.8288 46.6619 30.7492 45.9196 30.388 45.3037C30.0268 44.6878 29.4178 44.2559 28.717 44.1189L26.9097 43.7658L23.4224 41.1144C23.2135 40.9555 22.94 40.9091 22.6903 40.9902L20.6487 41.6534C20.6053 40.9232 20.6047 40.1932 20.6459 39.467C20.7264 39.542 20.7789 39.5931 20.8111 39.6265C20.8511 39.6931 20.9006 39.7541 20.9586 39.8069C21.1253 39.9588 21.2763 40.0276 21.5934 40.0276C21.8848 40.0276 22.3162 39.9695 23.0285 39.8643C23.704 39.7644 24.3761 39.6519 24.3827 39.6508C24.652 39.6057 24.8797 39.4263 24.9868 39.1753C25.094 38.9242 25.0657 38.6358 24.9119 38.4101L23.93 36.97L25.3364 35.9644C25.43 35.8974 25.5082 35.811 25.5655 35.711L27.7454 31.9053L28.6241 30.9638C29.522 30.0014 29.7783 28.5934 29.2768 27.3765C28.981 26.6588 28.4644 26.0612 27.8181 25.6585C28.518 25.1083 29.2643 24.6003 30.0574 24.1425C32.9672 22.4624 36.1428 21.6483 39.285 21.6171L37.8551 23.4108L32.5528 25.2696C32.3374 25.3451 32.1645 25.5089 32.0775 25.7198L30.5967 29.3096C30.4915 29.5646 30.5249 29.8556 30.6852 30.0802L32.8479 33.1097C32.5382 33.3923 32.2367 33.8039 31.8766 34.3149C31.7187 34.5391 31.5696 34.7507 31.4665 34.8694C31.3769 34.9727 31.2872 35.0736 31.1983 35.1735C30.7331 35.6969 30.2522 36.2381 29.9105 36.9611C29.1592 38.5513 29.311 40.3997 30.3065 41.7849C31.2691 43.1242 32.8561 43.805 34.5499 43.6058C34.8259 43.5734 35.0831 43.5098 35.3321 43.4481C36.0186 43.2783 36.2361 43.2613 36.4563 43.4674C36.5635 43.5677 36.5733 43.5867 36.5712 43.927C36.5696 44.1435 36.568 44.4129 36.6426 44.7205C36.7621 45.2125 37.0712 45.5526 37.3194 45.8259C37.4428 45.9616 37.5705 46.102 37.6098 46.1963C37.8595 46.7948 37.7508 47.1262 37.5125 47.8526C37.4921 47.9147 37.4712 47.9781 37.4503 48.0431C37.0883 49.1638 37.593 50.2755 38.0382 51.2561C38.1828 51.5746 38.3193 51.8752 38.4088 52.1409C39.1288 54.2773 39.6685 54.7666 40.1016 54.9636C40.3285 55.0667 40.5633 55.112 40.8005 55.1119C41.9548 55.1118 43.1593 54.04 43.7127 53.3606C44.0602 52.9339 44.1458 52.5067 44.2083 52.1946C44.2394 52.0394 44.2639 51.9169 44.3107 51.8368C44.3823 51.7143 44.4666 51.6194 44.5734 51.4991C44.7881 51.2573 45.0553 50.9565 45.2283 50.4113C45.3598 49.9971 45.4553 49.8956 45.7717 49.5586C45.8268 49.5001 45.8855 49.4375 45.9485 49.3689C47.0151 48.2083 46.7404 47.3218 46.4495 46.3831C46.2047 45.5933 46.6329 45.0882 47.6681 44.1241C48.1169 43.7062 48.5809 43.2741 48.9395 42.7549C49.0965 42.5276 49.574 41.8363 49.2785 41.1511C48.9889 40.4792 48.2527 40.3663 47.6613 40.2756C47.4277 40.2398 47.0747 40.1856 46.9623 40.1122C46.4669 39.7883 46.1638 39.1123 45.8706 38.4584C45.8123 38.3283 45.7547 38.1999 45.6963 38.0752C45.5922 37.8527 45.4882 37.5836 45.3781 37.2987C45.0867 36.5446 44.7566 35.69 44.1945 35.0942C43.6893 34.5589 42.7369 34.301 41.8967 34.0734C41.6141 33.997 41.3473 33.9247 41.1714 33.8598C41.024 33.8053 40.864 33.7955 40.7114 33.8314C40.3024 33.9272 40.0473 34.0328 39.8578 34.1847C39.8078 34.2248 39.6595 34.3565 39.5727 34.5682C39.2796 34.4275 38.8764 34.1589 38.6284 33.9935C38.6232 33.9901 38.618 33.9866 38.6129 33.9832C38.6965 33.6486 38.6208 33.3801 38.5416 33.2124C38.0942 32.2662 36.6094 32.3403 36.3164 32.3652C36.15 32.3791 35.9395 32.3866 35.7168 32.3944C35.367 32.4068 34.9804 32.4208 34.5979 32.4637L34.6176 32.4088C34.9079 31.5997 35.6805 31.0562 36.5401 31.0562H36.9953C37.4374 31.0562 37.796 30.6976 37.796 30.2555C37.796 29.8134 37.4374 29.4548 36.9953 29.4548H36.5401C35.264 29.4548 34.0954 30.1264 33.4404 31.1835L32.2461 29.5104L33.4211 26.6621L38.6024 24.8456C38.7445 24.7958 38.8697 24.7069 38.9636 24.5891L41.2669 21.7C47.1522 22.2598 52.692 25.5595 55.8665 31.0578C56.712 32.5224 57.3375 34.0642 57.7533 35.6412L57.4139 35.9439C56.9708 36.3392 56.7112 36.9063 56.7013 37.4997C56.7012 37.5062 56.701 37.5126 56.7008 37.519L56.1478 35.9982C56.0654 35.7712 55.944 35.5631 55.7872 35.3797L54.8007 34.2247C54.4182 33.777 53.8614 33.5203 53.2727 33.5203H52.0652C51.6366 33.5203 51.2448 33.7551 51.0426 34.1329C50.8404 34.5107 50.8625 34.9669 51.1003 35.3235L51.2225 35.5069C50.4422 36.1779 49.5397 36.7148 48.5788 37.0769L46.9236 33.9064V33.1991C46.9236 32.9803 46.834 32.7709 46.6757 32.6199L45.1852 31.197C45.103 31.1185 45.005 31.0585 44.8978 31.0208L43.5561 30.5493C43.1386 30.4024 42.6817 30.6221 42.5351 31.0392C42.3885 31.4565 42.6078 31.9135 43.0251 32.0601L44.2041 32.4745L45.3222 33.5417V34.1029C45.3222 34.2319 45.3534 34.3591 45.4131 34.4735L47.4853 38.4427C47.6717 38.7999 48.0946 38.9631 48.4721 38.8234L49.0755 38.601C50.4773 38.084 51.7766 37.2524 52.8329 36.1961C53.1028 35.9262 53.1448 35.5035 52.933 35.1858L52.8904 35.1218H53.2727C53.3923 35.1218 53.5054 35.1739 53.5831 35.2649L54.5696 36.4199C54.6014 36.4571 54.626 36.4992 54.6428 36.5454L55.7314 39.539C55.825 39.7962 56.0434 39.9878 56.3104 40.047C56.3681 40.0598 56.4261 40.066 56.4839 40.066C56.6939 40.066 56.8983 39.9833 57.05 39.8315L57.5682 39.3133C57.8964 38.985 58.1223 38.5697 58.2302 38.1094C59.0316 44.532 56.5133 51.176 51.1901 55.354C50.8422 55.6269 50.7815 56.1302 51.0546 56.4782C51.3276 56.8261 51.8308 56.8868 52.1789 56.6137C56.022 53.5974 58.6621 49.2832 59.6131 44.4657C60.5729 39.6019 59.7349 34.5557 57.2532 30.2573ZM22.7866 42.6428L26.0884 45.1533C26.1861 45.2275 26.2993 45.2783 26.4196 45.3017L28.4097 45.6906C28.6637 45.7403 28.8756 45.8905 29.0065 46.1137C29.1374 46.3369 29.165 46.5952 29.0844 46.8411C28.9187 47.3466 28.9179 47.8813 29.0823 48.3872L29.3359 49.1678C29.4875 49.6343 29.2311 50.1373 28.7647 50.2889L27.9689 50.5474C27.6913 50.6376 27.4849 50.8717 27.43 51.1583L26.7895 54.5014C25.3815 53.2127 24.1453 51.6897 23.1418 49.9516C21.9176 47.8313 21.1527 45.5698 20.8155 43.2831L22.7866 42.6428ZM27.4533 29.8712L26.5113 30.8804C26.4693 30.9255 26.4325 30.9753 26.4019 31.0288L24.2628 34.7633L22.3617 36.1227C22.0076 36.3759 21.9206 36.8654 22.1658 37.2251L22.8768 38.2681C22.467 38.3291 22.0992 38.3794 21.8546 38.4061C21.8076 38.361 21.7585 38.3153 21.7076 38.268C21.5173 38.0912 21.2528 37.855 20.8585 37.51C21.5088 33.485 23.4483 29.6932 26.4986 26.7987C27.0827 26.9827 27.562 27.4184 27.7962 27.9867C28.0597 28.6259 27.925 29.3656 27.4533 29.8712ZM33.9821 34.2469C34.3392 34.0459 35.1682 34.0165 35.7734 33.995C36.016 33.9865 36.2452 33.9783 36.4498 33.9612C36.5579 33.9521 36.6778 33.9538 36.791 33.9626C36.7404 34.0923 36.724 34.2347 36.746 34.376C36.7845 34.6245 36.9377 34.8403 37.1593 34.9589C37.3096 35.0393 37.5186 35.1787 37.74 35.3263C38.3658 35.7435 39.0752 36.2163 39.7416 36.2588C40.3476 36.2981 40.6849 35.9527 40.8293 35.8056C40.8408 35.7939 40.8517 35.7822 40.8633 35.7716C40.9446 35.7053 41.0209 35.6164 41.0776 35.5092C41.2056 35.5457 41.3401 35.5822 41.478 35.6196C41.9522 35.7479 42.8347 35.9869 43.0297 36.1935C43.376 36.5607 43.646 37.2595 43.8842 37.876C44.0046 38.1876 44.1183 38.4817 44.2458 38.7543C44.3006 38.8713 44.3545 38.9918 44.4093 39.1139C44.7788 39.938 45.1976 40.8722 46.086 41.453C46.4889 41.7163 46.9828 41.792 47.4185 41.8589C47.4712 41.867 47.5316 41.8762 47.5929 41.8863C47.3343 42.2472 46.966 42.5901 46.5769 42.9524C45.5856 43.8756 44.3519 45.0245 44.9201 46.8574C45.1883 47.7229 45.2008 47.8164 44.7696 48.2855C44.7108 48.3495 44.656 48.4078 44.6047 48.4624C44.2354 48.8556 43.9436 49.1662 43.7021 49.9269C43.632 50.1478 43.5411 50.2502 43.376 50.436C43.2441 50.5846 43.0797 50.7697 42.9281 51.0292C42.7465 51.34 42.6864 51.6394 42.6383 51.8798C42.5908 52.1165 42.5639 52.2352 42.471 52.3493C42.2595 52.6089 41.865 52.9859 41.4601 53.2432C41.0837 53.4821 40.864 53.5148 40.7891 53.5103C40.7037 53.4187 40.3942 53.0176 39.9265 51.6296C39.8112 51.2872 39.6512 50.9348 39.4965 50.5941C39.1554 49.843 38.8029 49.0662 38.9744 48.5354C38.9946 48.4728 39.0147 48.4116 39.0344 48.3518C39.3084 47.5165 39.567 46.7279 39.0879 45.5795C38.9419 45.2298 38.7096 44.9743 38.5049 44.7488C38.3724 44.603 38.2222 44.4377 38.1991 44.3426C38.1709 44.2265 38.1718 44.0926 38.1728 43.9375C38.1755 43.519 38.1797 42.8868 37.5512 42.2983C36.665 41.4688 35.6317 41.7243 34.9478 41.8935C34.7378 41.9454 34.5393 41.9945 34.3635 42.0152C33.2385 42.147 32.2342 41.7226 31.6072 40.85C30.9513 39.9374 30.8561 38.7092 31.3588 37.645C31.6021 37.13 31.9698 36.7163 32.3955 36.2374C32.4885 36.1327 32.5823 36.0272 32.6762 35.9191C32.8323 35.7391 33.0042 35.4953 33.1859 35.2372C33.4028 34.9293 33.8067 34.3559 33.9821 34.2469Z" fill="white"/>
<path d="M51.8339 47.5693L51.4486 46.1172C51.3644 45.8 51.0954 45.5664 50.7697 45.5275C50.4436 45.4893 50.1274 45.6524 49.9709 45.9407C49.8831 46.1025 49.804 46.2739 49.7277 46.4395C49.5991 46.7183 49.4662 47.0066 49.3279 47.1657C49.2502 47.2551 49.0507 47.3514 48.8578 47.4444C48.3968 47.6669 47.7654 47.9716 47.5242 48.7405C47.3745 49.2174 47.4304 49.5948 47.4712 49.8702C47.5065 50.1091 47.5147 50.1919 47.4507 50.3421L47.4427 50.3608C47.1878 50.9589 46.7136 52.0724 47.3786 53.019C47.853 53.6945 48.3519 53.8682 48.7396 53.8682C48.8152 53.8685 48.8868 53.8618 48.9531 53.851C49.7699 53.7175 50.3839 52.8679 50.8857 51.177L51.8275 48.0026C51.8694 47.8614 51.8717 47.7115 51.8339 47.5693ZM49.3505 50.7214C49.0947 51.5835 48.8684 51.986 48.7378 52.1644C48.7228 52.1452 48.7064 52.1234 48.689 52.0985C48.5359 51.8805 48.7646 51.3437 48.916 50.9884L48.9241 50.9696C49.1681 50.3968 49.1029 49.9568 49.0554 49.6355C49.0249 49.4298 49.014 49.3414 49.0522 49.2199C49.0836 49.1201 49.2712 49.0232 49.5539 48.8867C49.6792 48.8262 49.8172 48.7596 49.9564 48.6791L49.3505 50.7214Z" fill="white"/>
<path d="M40.6235 29.5182L40.5695 29.4993C40.1525 29.3533 39.6953 29.5726 39.5489 29.9899C39.4025 30.4073 39.6222 30.8641 40.0395 31.0105L40.0934 31.0294C40.1811 31.0601 40.2705 31.0747 40.3585 31.0747C40.689 31.0747 40.9985 30.8683 41.1141 30.5388C41.2605 30.1215 41.0408 29.6645 40.6235 29.5182Z" fill="white"/>
</g>
<defs>
<clipPath id="clip0">
<rect width="41" height="41" fill="white" transform="translate(19 20)"/>
</clipPath>
</defs>
</svg>
