<svg width="82" height="82" viewBox="0 0 82 82" fill="none" xmlns="http://www.w3.org/2000/svg">
<rect x="0.830078" y="0.540039" width="80" height="80" fill="#003A7D"/>
<g clip-path="url(#clip0)">
<path d="M37.5499 47.7471C38.003 47.7471 38.3702 47.3885 38.3702 46.9463C38.3702 46.504 38.003 46.1455 37.5499 46.1455C37.0969 46.1455 36.7296 46.504 36.7296 46.9463C36.7296 47.3885 37.0969 47.7471 37.5499 47.7471Z" fill="white"/>
<path d="M23.1124 30.9307V34.1338C23.1124 34.5761 23.4797 34.9346 23.9327 34.9346H47.6398C48.0927 34.9346 48.4601 34.5761 48.4601 34.1338V30.9307C48.4601 30.4884 48.0927 30.1299 47.6398 30.1299H23.9327C23.4797 30.1299 23.1124 30.4884 23.1124 30.9307V30.9307ZM31.8077 31.7314H46.8195V33.333H31.8077V31.7314ZM24.7531 31.7314H30.1671V33.333H24.7531V31.7314Z" fill="white"/>
<path d="M23.9327 38.1377H47.6398C48.0927 38.1377 48.4601 37.7792 48.4601 37.3369C48.4601 36.8946 48.0927 36.5361 47.6398 36.5361H23.9327C23.4797 36.5361 23.1124 36.8946 23.1124 37.3369C23.1124 37.7792 23.4797 38.1377 23.9327 38.1377V38.1377Z" fill="white"/>
<path d="M23.9327 41.3408H47.6398C48.0927 41.3408 48.4601 40.9823 48.4601 40.54C48.4601 40.0978 48.0927 39.7393 47.6398 39.7393H23.9327C23.4797 39.7393 23.1124 40.0978 23.1124 40.54C23.1124 40.9823 23.4797 41.3408 23.9327 41.3408V41.3408Z" fill="white"/>
<path d="M23.9327 44.5439H37.5499C38.003 44.5439 38.3702 44.1854 38.3702 43.7432C38.3702 43.3009 38.003 42.9424 37.5499 42.9424H23.9327C23.4797 42.9424 23.1124 43.3009 23.1124 43.7432C23.1124 44.1854 23.4797 44.5439 23.9327 44.5439V44.5439Z" fill="white"/>
<path d="M23.9327 47.7471H34.2687C34.7217 47.7471 35.089 47.3886 35.089 46.9463C35.089 46.504 34.7217 46.1455 34.2687 46.1455H23.9327C23.4797 46.1455 23.1124 46.504 23.1124 46.9463C23.1124 47.3886 23.4797 47.7471 23.9327 47.7471V47.7471Z" fill="white"/>
<path d="M30.9874 54.1533H35.1715C35.5526 55.9787 37.2097 57.3564 39.1906 57.3564C41.4522 57.3564 43.2921 55.5603 43.2921 53.3525C43.2921 51.1448 41.4522 49.3486 39.1906 49.3486C37.2098 49.3486 35.5526 50.7264 35.1715 52.5518H30.9874C30.5344 52.5518 30.1671 52.9103 30.1671 53.3525C30.1671 53.7948 30.5344 54.1533 30.9874 54.1533V54.1533ZM39.1906 52.5518H36.8707C37.2093 51.6197 38.1211 50.9502 39.1906 50.9502C40.5475 50.9502 41.6515 52.0279 41.6515 53.3525C41.6515 54.6772 40.5475 55.7549 39.1906 55.7549C38.1212 55.7549 37.2093 55.0853 36.8707 54.1533H39.1906C39.6435 54.1533 40.0109 53.7948 40.0109 53.3525C40.0109 52.9103 39.6436 52.5518 39.1906 52.5518V52.5518Z" fill="white"/>
<path d="M47.6398 26.4463C48.0927 26.4463 48.4601 26.0878 48.4601 25.6455C48.4601 25.2032 48.0927 24.8447 47.6398 24.8447H45.9991C45.5462 24.8447 45.1788 25.2032 45.1788 25.6455C45.1788 26.0878 45.5462 26.4463 45.9991 26.4463H47.6398Z" fill="white"/>
<path d="M42.7179 26.4463C43.1709 26.4463 43.5382 26.0878 43.5382 25.6455C43.5382 25.2032 43.1709 24.8447 42.7179 24.8447H41.0773C40.6243 24.8447 40.257 25.2032 40.257 25.6455C40.257 26.0878 40.6243 26.4463 41.0773 26.4463H42.7179Z" fill="white"/>
<path d="M37.796 26.4463C38.2491 26.4463 38.6163 26.0878 38.6163 25.6455C38.6163 25.2032 38.2491 24.8447 37.796 24.8447H36.1554C35.7023 24.8447 35.3351 25.2032 35.3351 25.6455C35.3351 26.0878 35.7023 26.4463 36.1554 26.4463H37.796Z" fill="white"/>
<path d="M35.9093 61.04C36.3623 61.04 36.7296 60.6815 36.7296 60.2393C36.7296 59.797 36.3623 59.4385 35.9093 59.4385C35.4563 59.4385 35.089 59.797 35.089 60.2393C35.089 60.6815 35.4563 61.04 35.9093 61.04Z" fill="white"/>
<path d="M20.6521 61.04H32.2185C32.6716 61.04 33.0388 60.6815 33.0388 60.2393C33.0388 59.797 32.6716 59.4385 32.2185 59.4385H21.4724V28.0479H27.2146C27.6677 28.0479 28.0349 27.6893 28.0349 27.2471V21.6416H50.1013V44.2758C49.7292 44.7056 49.3817 45.083 49.0811 45.384L47.342 43.6864C45.7396 42.121 43.1442 42.1203 41.5412 43.6862L40.3813 44.8185C40.0609 45.1312 40.0609 45.6383 40.3813 45.951L50.1012 55.4395V59.4385H39.6012C39.1482 59.4385 38.7809 59.797 38.7809 60.2393C38.7809 60.6815 39.1482 61.04 39.6012 61.04H50.9215C51.3745 61.04 51.7419 60.6815 51.7419 60.2393V57.0411L51.9821 57.2756C52.3025 57.5881 52.822 57.5884 53.1423 57.2756L54.3022 56.1433C55.9049 54.5788 55.9053 52.0457 54.3022 50.4809L52.5634 48.7834C54.1195 47.3033 57.5422 44.8448 59.3406 44.0802C61.8648 43.0076 62.7757 39.6572 60.622 37.5547C58.4845 35.4671 55.0677 36.3154 53.9483 38.7866C53.5284 39.7128 52.6586 41.015 51.7419 42.2353V20.8408C51.7419 20.3985 51.3746 20.04 50.9216 20.04H27.2146C26.9909 20.04 26.7807 20.1321 26.6346 20.2746L20.0721 26.6808C19.9237 26.8254 19.8318 27.0297 19.8318 27.2471V60.2393C19.8318 60.6815 20.199 61.04 20.6521 61.04V61.04ZM53.1421 51.6133C54.1037 52.552 54.1039 54.072 53.1421 55.0109L52.5623 55.577L42.1215 45.3848L42.7015 44.8185C43.6631 43.8794 45.2196 43.8789 46.1818 44.8187L53.1421 51.6133ZM51.5646 45.0647C52.9862 43.391 54.7385 41.001 55.4486 39.4345C56.0862 38.0269 58.1127 37.3695 59.4618 38.6871C60.8116 40.0047 60.1259 41.9999 58.6856 42.6118C56.6445 43.4797 53.0918 46.0392 51.4032 47.6508L50.2413 46.5165C50.6302 46.1281 51.0845 45.63 51.5646 45.0647ZM26.3943 22.7741V26.4463H22.6325L26.3943 22.7741Z" fill="white"/>
</g>
<rect x="61" y="61" width="21" height="21" fill="white"/>
<defs>
<clipPath id="clip0">
<rect width="42" height="41" fill="white" transform="translate(19.8301 20.04)"/>
</clipPath>
</defs>
</svg>
