<svg width="82" height="82" viewBox="0 0 82 82" fill="none" xmlns="http://www.w3.org/2000/svg">
<rect x="0.238525" y="0.313477" width="80" height="80" fill="#003A7D"/>
<rect x="60.2385" y="60.3135" width="21" height="21" fill="white"/>
<g clip-path="url(#clip0)">
<path d="M57.5393 18.8135H44.0178C43.554 18.8135 43.178 19.1895 43.178 19.6533C43.178 20.1172 43.554 20.4932 44.0178 20.4932H56.6995V47.1713C56.6995 51.8182 52.919 55.5986 48.2721 55.5986C45.1358 55.5986 42.1402 57.0824 40.2385 59.5728C38.3369 57.0823 35.3412 55.5986 32.2049 55.5986C27.5581 55.5986 23.7776 51.8182 23.7776 47.1713V20.4932H36.4592C36.9231 20.4932 37.2991 20.1172 37.2991 19.6533C37.2991 19.1895 36.9231 18.8135 36.4592 18.8135H22.9377C22.4739 18.8135 22.0979 19.1895 22.0979 19.6533V47.1713C22.0979 52.7443 26.6319 57.2783 32.2049 57.2783C34.8468 57.2783 37.369 58.5411 38.952 60.6562L39.5661 61.4768C39.7247 61.6887 39.9739 61.8134 40.2385 61.8134C40.5032 61.8134 40.7523 61.6887 40.9109 61.4768L41.5251 60.6562C43.108 58.541 45.6302 57.2783 48.2721 57.2783C53.8452 57.2783 58.3792 52.7443 58.3792 47.1713V19.6533C58.3792 19.1895 58.0032 18.8135 57.5393 18.8135Z" fill="white"/>
<path d="M35.528 26.9433C35.4645 27.1944 35.5205 27.4608 35.6796 27.6651C35.8388 27.8694 36.0833 27.9889 36.3423 27.9889H37.719V28.9211C37.719 29.1793 37.6649 29.4337 37.5627 29.6711H32.949C31.8777 29.6711 31.006 28.7995 31.006 27.7282C31.006 26.2463 29.8004 25.0407 28.3185 25.0407C26.8366 25.0407 25.631 26.2463 25.631 27.7282V48.3761C25.631 48.691 25.8072 48.9794 26.0874 49.1232C26.2083 49.1852 26.3397 49.2159 26.4707 49.2159C26.6433 49.2159 26.815 49.1628 26.9605 49.0584L34.1734 43.883L33.3727 45.3315C33.1916 45.6592 33.2491 46.067 33.5138 46.3317L34.2057 47.0237L32.4947 49.0699H30.1581C29.6942 49.0699 29.3182 49.4459 29.3182 49.9097C29.3182 50.3735 29.6942 50.7495 30.1581 50.7495H31.0901L29.9435 52.1207C29.6459 52.4765 29.6932 53.0061 30.049 53.3037C30.2062 53.4351 30.3973 53.4993 30.5873 53.4993C30.8274 53.4993 31.0659 53.3967 31.2321 53.1982L32.0948 52.1664V52.6593C32.0948 53.1231 32.4708 53.4991 32.9347 53.4991C33.3985 53.4991 33.7745 53.1231 33.7745 52.6593V50.1576L35.3981 48.2161L36.0297 48.8476C36.2007 49.0187 36.4377 49.108 36.6785 49.0919C36.9199 49.0761 37.1427 48.9569 37.2899 48.765L37.719 48.2057V52.6593C37.719 52.9945 37.9185 53.2977 38.2264 53.4305C38.5343 53.5632 38.8915 53.5001 39.1354 53.27L40.2455 52.222L41.3378 53.2663C41.4972 53.4187 41.7062 53.4991 41.9184 53.4991C42.0298 53.4991 42.142 53.477 42.2483 53.4315C42.5575 53.2993 42.7581 52.9955 42.7581 52.6593V48.2056L43.1872 48.7649C43.3344 48.9568 43.5572 49.0759 43.7986 49.0918C44.0398 49.1082 44.2764 49.0186 44.4474 48.8476L45.079 48.216L46.7026 50.1575V52.6593C46.7026 53.1231 47.0786 53.4991 47.5424 53.4991C48.0063 53.4991 48.3823 53.1231 48.3823 52.6593V52.1663L49.245 53.198C49.4112 53.3966 49.6496 53.4991 49.8898 53.4991C50.0798 53.4991 50.2709 53.4349 50.4281 53.3035C50.784 53.006 50.8312 52.4763 50.5336 52.1205L49.3871 50.7494H50.319C50.7829 50.7494 51.1589 50.3734 51.1589 49.9095C51.1589 49.4457 50.7829 49.0697 50.319 49.0697H47.9824L46.2714 47.0235L46.9633 46.3315C47.2269 46.0679 47.2852 45.6619 47.1063 45.3347L46.3179 43.893L53.5167 49.0583C53.6622 49.1627 53.8339 49.2157 54.0065 49.2157C54.1375 49.2157 54.269 49.1851 54.3898 49.123C54.67 48.9792 54.8462 48.6908 54.8462 48.3759V27.7282C54.8462 26.2463 53.6406 25.0407 52.1587 25.0407C50.6768 25.0407 49.4712 26.2463 49.4712 27.7282C49.4712 28.7995 48.5996 29.6711 47.5282 29.6711H44.6385V25.8845C44.6385 23.9768 43.0865 22.4248 41.1788 22.4248C39.7252 22.4248 38.4789 23.3264 37.9675 24.5993C36.7912 24.8462 35.8316 25.7413 35.528 26.9433ZM32.4503 35.0287V43.052L30.7204 44.2933V34.6986C31.2716 34.8753 31.8512 34.9882 32.4503 35.0287ZM34.13 35.0461H35.86V40.6055L34.13 41.8468V35.0461ZM28.3185 26.7204C28.8742 26.7204 29.3263 27.1724 29.3263 27.7282C29.3263 29.7257 30.9514 31.3507 32.949 31.3507H36.6711C36.3901 31.9988 36.1804 32.6741 36.0448 33.3664H32.949C31.9845 33.3664 31.076 33.1226 30.2814 32.694C30.2806 32.6936 30.2799 32.6932 30.2791 32.6928C28.5133 31.7394 27.3107 29.8717 27.3107 27.7282C27.3107 27.1724 27.7628 26.7204 28.3185 26.7204ZM27.3107 32.388C27.8026 32.9823 28.3868 33.4976 29.0407 33.9123V45.4985L27.3107 46.7398V32.388ZM48.0268 35.0287C48.6259 34.9882 49.2054 34.8753 49.7568 34.6986V44.2933L48.0268 43.052V35.0287ZM46.3471 41.8468L44.6384 40.6208V35.0461H46.3471V41.8468ZM53.1664 46.7398L51.4364 45.4985V33.9123C52.0903 33.4976 52.6744 32.9823 53.1664 32.388V46.7398ZM47.5281 31.3507C49.5257 31.3507 51.1508 29.7257 51.1508 27.7282C51.1508 27.1724 51.6029 26.7204 52.1586 26.7204C52.7144 26.7204 53.1664 27.1724 53.1664 27.7282C53.1664 29.8718 51.9638 31.7394 50.198 32.6928C50.1973 32.6932 50.1965 32.6936 50.1957 32.694C49.4011 33.1227 48.4926 33.3664 47.5281 33.3664H44.6385V31.3507H47.5281ZM39.3987 25.8845C39.3987 24.903 40.1972 24.1045 41.1788 24.1045C42.1603 24.1045 42.9588 24.903 42.9588 25.8845V41.0366C42.9588 41.1774 42.9942 41.316 43.0618 41.4395L45.3308 45.5889L43.937 46.9827L42.5847 45.2199C42.3657 44.9345 41.9891 44.8202 41.6484 44.9359C41.3077 45.0515 41.0785 45.3714 41.0785 45.7311V50.6945L40.8297 50.4566C40.5065 50.1476 39.9979 50.146 39.6728 50.453L39.3989 50.7117V45.7312C39.3989 45.3714 39.1697 45.0515 38.829 44.936C38.7403 44.9059 38.6492 44.8914 38.5592 44.8914C38.3031 44.8914 38.0548 45.0089 37.8927 45.2201L36.5404 46.9828L35.1487 45.5911L37.6638 41.0412L38.0338 41.6976C38.2616 42.1017 38.7738 42.2446 39.1778 42.0168C39.5819 41.789 39.7247 41.2768 39.497 40.8727L38.5914 39.2665C37.9035 38.0462 37.5398 36.6607 37.5398 35.2599C37.5398 33.6968 37.9855 32.1749 38.8288 30.8588C39.2017 30.2768 39.3989 29.6067 39.3989 28.9213V25.8845H39.3987Z" fill="white"/>
<path d="M40.2385 20.4932C40.4594 20.4932 40.6761 20.4033 40.8323 20.2471C40.9885 20.0909 41.0784 19.8742 41.0784 19.6533C41.0784 19.4324 40.9885 19.2158 40.8323 19.0596C40.6761 18.9033 40.4594 18.8135 40.2385 18.8135C40.0176 18.8135 39.801 18.9033 39.6448 19.0596C39.4885 19.2158 39.3987 19.4324 39.3987 19.6533C39.3987 19.8742 39.4885 20.0909 39.6448 20.2471C39.801 20.4033 40.0176 20.4932 40.2385 20.4932Z" fill="white"/>
</g>
<defs>
<clipPath id="clip0">
<rect width="43" height="43" fill="white" transform="translate(18.7385 18.8135)"/>
</clipPath>
</defs>
</svg>
