<svg width="82" height="82" viewBox="0 0 82 82" fill="none" xmlns="http://www.w3.org/2000/svg">
<rect x="0.830078" y="0.540039" width="80" height="80" fill="#003A7D"/>
<rect x="60.8301" y="60.54" width="21" height="21" fill="white"/>
<g clip-path="url(#clip0)">
<path d="M49.7525 40.1952C51.8496 37.2692 52.9581 33.8344 52.9581 30.2621V22.2973C52.9581 21.904 52.6784 21.5631 52.2857 21.4775L41.189 19.06C41.0658 19.0334 40.9382 19.0334 40.815 19.06L29.7187 21.4775C29.3256 21.5631 29.0463 21.904 29.0463 22.2973V30.2621C29.0463 33.8344 30.1547 37.2692 32.2518 40.1949C34.3489 43.1209 37.2731 45.3127 40.7086 46.5337C40.8033 46.5672 40.903 46.5842 41.002 46.5842C41.1014 46.5842 41.2011 46.5672 41.2957 46.5337C44.7312 45.313 47.6555 43.1209 49.7525 40.1952ZM41.002 44.8475C38.0271 43.7265 35.4929 41.7896 33.6597 39.2313C31.7661 36.5894 30.765 33.4879 30.765 30.2621V22.9705L41.002 20.7403L51.2393 22.9705V30.2621C51.2393 33.4876 50.2383 36.5891 48.3446 39.2313C46.5111 41.7896 43.9769 43.7265 41.002 44.8475Z" fill="white"/>
<path d="M49.7773 24.789C49.7773 24.3953 49.498 24.0548 49.1049 23.9692L41.1893 22.2445C41.0661 22.218 40.9382 22.218 40.815 22.2445L32.899 23.9692C32.4357 24.0702 32.144 24.519 32.2474 24.9717C32.3504 25.4245 32.81 25.7096 33.2729 25.6085L41.0019 23.9249L48.0586 25.4622V30.2621C48.0586 32.8466 47.2566 35.3314 45.7396 37.4484C44.5207 39.149 42.8885 40.5269 41.0019 41.453C39.1153 40.5272 37.4835 39.149 36.2646 37.4484C34.9524 35.6174 34.1642 33.4771 33.9856 31.2594C33.9705 31.0744 33.9598 30.8874 33.9534 30.703C33.9369 30.2391 33.5365 29.8766 33.0648 29.8924C32.5905 29.9085 32.2192 30.2972 32.2356 30.7608C32.243 30.9697 32.2551 31.182 32.2719 31.3913C32.4747 33.9079 33.3686 36.3356 34.8567 38.4119C36.3267 40.4626 38.3268 42.1003 40.6411 43.1475C40.7555 43.1993 40.8791 43.2252 41.0023 43.2252C41.1255 43.2252 41.2487 43.1993 41.3632 43.1475C43.6778 42.1 45.6778 40.4626 47.1475 38.4119C48.8679 36.0114 49.7777 33.193 49.7777 30.2621V24.789H49.7773Z" fill="white"/>
<path d="M38.5537 34.6217C38.7041 34.7956 38.9199 34.9022 39.1525 34.9173C39.1717 34.9186 39.1908 34.9193 39.21 34.9193C39.4221 34.9193 39.6279 34.8425 39.7863 34.7024L46.0168 29.1935C46.3686 28.8825 46.3958 28.3514 46.0776 28.0073C45.759 27.6634 45.2155 27.6369 44.8637 27.9479L39.2922 32.8738L37.702 31.0356C37.3959 30.6816 36.8534 30.637 36.4912 30.9365C36.1286 31.2361 36.0833 31.7659 36.3895 32.1202L38.5537 34.6217Z" fill="white"/>
<path d="M33.7654 46.8349C33.3125 46.2529 32.6542 45.8829 31.912 45.7923C31.1698 45.7021 30.4387 45.9025 29.8532 46.3576C29.5793 46.5705 29.3581 46.8257 29.1912 47.1069L28.9388 46.7854C28.7145 46.5003 28.5913 46.1453 28.5913 45.7858V38.2091C28.5913 36.6613 27.3026 35.4019 25.7188 35.4019C24.229 35.4019 22.9997 36.495 22.859 37.944L21.9392 47.4241C21.8583 48.2544 22.098 49.0782 22.6167 49.7475L29.9214 59.0428V61.2002C29.9214 61.6641 30.3061 62.04 30.7807 62.04C31.2551 62.04 31.6401 61.6641 31.6401 61.2002V58.7574C31.6401 58.5724 31.5773 58.3926 31.4622 58.246L23.9833 48.7288C23.7285 48.4001 23.6103 47.993 23.6503 47.5826L24.5704 38.1028C24.6268 37.5205 25.1206 37.0815 25.7188 37.0815C26.3553 37.0815 26.8726 37.5874 26.8726 38.2091V45.7858C26.8726 46.5134 27.1223 47.2315 27.5759 47.8083L29.3748 50.0978C29.3775 50.1014 29.3802 50.1051 29.3829 50.1087L30.8344 51.956C31.1238 52.3238 31.6633 52.393 32.0396 52.1105C32.4159 51.828 32.4867 51.3008 32.1977 50.9328L30.7415 49.0795C30.4041 48.6432 30.4846 48.0133 30.9237 47.6721C31.1443 47.5005 31.4199 47.4251 31.6995 47.4589C31.9792 47.493 32.2272 47.6328 32.3978 47.8519L35.8672 52.3077C36.55 53.1846 36.9259 54.2744 36.9259 55.3764V61.2002C36.9259 61.6641 37.3106 62.04 37.7853 62.04C38.26 62.04 38.6447 61.6641 38.6447 61.2002V55.3764C38.6447 53.9093 38.1442 52.4583 37.2351 51.2907L33.7654 46.8349Z" fill="white"/>
<path d="M59.824 47.4241L58.9038 37.944C58.7632 36.495 57.5335 35.4019 56.0441 35.4019C54.4603 35.4019 53.1715 36.6613 53.1715 38.2091V45.7858C53.1715 46.1453 53.048 46.5003 52.8241 46.7854L52.5713 47.1069C52.4048 46.826 52.1836 46.5708 51.9097 46.3576C51.3242 45.9025 50.5931 45.7021 49.8508 45.7923C49.1086 45.8829 48.4503 46.2529 47.9975 46.8349L44.5281 51.2907C43.619 52.4583 43.1182 53.9093 43.1182 55.3767V61.2002C43.1182 61.6641 43.5032 62.04 43.9775 62.04C44.4522 62.04 44.8369 61.6641 44.8369 61.2002V55.3764C44.8369 54.2744 45.2129 53.1846 45.8957 52.3077L49.3651 47.8519C49.536 47.6328 49.784 47.4933 50.0637 47.4589C50.3433 47.4251 50.6189 47.5005 50.8395 47.6721C51.2782 48.0133 51.3591 48.6432 51.0214 49.0795L49.5655 50.9328C49.2765 51.3008 49.3473 51.828 49.7236 52.1105C50.0999 52.393 50.6394 52.3238 50.9288 51.956L52.38 50.1087C52.3826 50.1054 52.385 50.1021 52.3877 50.0988L54.1873 47.8086C54.6405 47.2315 54.8903 46.5134 54.8903 45.7858V38.2091C54.8903 37.5874 55.4079 37.0815 56.0441 37.0815C56.6423 37.0815 57.1361 37.5205 57.1928 38.1028L58.1129 47.5826C58.1526 47.9933 58.0344 48.4001 57.783 48.7246L50.3007 58.246C50.1855 58.3926 50.1231 58.5727 50.1231 58.7578V61.2002C50.1231 61.6641 50.5078 62.04 50.9825 62.04C51.4571 62.04 51.8418 61.6641 51.8418 61.2002V59.0428L59.1496 49.7432C59.6649 49.0782 59.9045 48.2544 59.824 47.4241Z" fill="white"/>
<path d="M32.6089 28.4547C32.9114 28.6518 33.3209 28.6394 33.609 28.4225C33.8799 28.2185 34.0071 27.8622 33.9158 27.5387C33.8181 27.192 33.5005 26.9374 33.1316 26.9177C32.7664 26.8983 32.4216 27.1162 32.2877 27.4478C32.1406 27.8123 32.2766 28.2362 32.6089 28.4547Z" fill="white"/>
</g>
<defs>
<clipPath id="clip0">
<rect width="44" height="43" fill="white" transform="translate(18.8301 19.04)"/>
</clipPath>
</defs>
</svg>
